<svg version="1.1" id="Calque_1" xmlns="http://www.w3.org/2000/svg" xmlns:xlink="http://www.w3.org/1999/xlink" x="0px" y="0px"
	 width="432px" height="432px" viewBox="0 0 432 432" enable-background="new 0 0 432 432" xml:space="preserve">

	<g>
		<g>
			<path fill="#1D1D1B" d="M134.604,110.354c3.131-4.892,12.912-22.304-6.26-22.304c-15.455,0-40.691,15.26-40.691,36.977
				c0,15.846,23.279,16.825,23.279,23.673c0,12.521-29.15,18.585-29.15-0.979c0-6.65-9.781-8.607-9.781,0
				c0,30.129,50.865,18.391,50.865,0c0-8.804-24.063-14.086-24.063-22.693c0-19.76,21.129-33.258,29.736-33.258
				c6.457,0,4.5,11.738-3.324,19.172C117.193,118.18,131.67,115.637,134.604,110.354z"/>
			<path fill="#1D1D1B" d="M271.855,114.854c-2.152,18.194-22.303,44.996-31.107,44.996c-7.041,0,11.545-28.563,13.695-42.063
				c0-3.717-6.455-9.39-8.412-6.456c-4.303,6.262-8.607,14.673-11.934,22.891c-8.412,11.542-19.174,25.628-24.064,25.628
				c-7.041,0,15.064-28.563,18.783-42.063c0.586-3.717-5.283-9.39-7.631-6.456c-4.992,6.312-10.547,14.86-14.885,23.268
				c-3.438,1.549-7.166,2.375-10.35,2.557c3.129-11.737,2.738-23.085-5.088-26.019c-1.957-0.783-3.717-0.783-6.064,1.368
				c-4.109-2.151-6.65-5.281-10.174-1.76c-8.338,8.337-19.486,26.42-19.717,39.421c-4.803,5.02-11.492,10.951-16.277,10.951
				c-11.543,0,20.934-57.992,22.891-61.857c2.152-4.051,0.195-8.102-5.676-9.942c-9.781,16.386-44.018,76.402-21.715,76.402
				c7.445,0,15.465-5.863,21.104-11.562c0.418,2.148,1.234,4.081,2.566,5.691c3.717,4.305,10.564,6.456,15.848,6.456
				c7.824,0,16.629-12.521,21.129-25.824c2.717,0,5.977-0.357,9.254-1.246c-6.254,13.529-8.365,25.505,1.504,25.505
				c6.26,0,17.41-11.934,25.627-22.106c-3.52,12.13-3.326,22.106,5.674,22.106c18.195,0,44.215-38.54,44.215-51.844
				C281.051,109.181,272.246,111.332,271.855,114.854z M175.018,160.438c-15.26,0,1.369-30.521,4.305-36.389
				c-0.783,7.825,3.717,14.867,11.738,16.237C189.494,145.961,179.125,160.438,175.018,160.438z M192.82,136.96
				c-8.805-0.391-12.131-16.041-4.5-20.932C194.385,112.115,196.732,125.222,192.82,136.96z"/>
			<path fill="#1D1D1B" d="M350.162,112.897c-6.262,13.89-27.195,46.953-35.803,46.953c-7.043,0,15.064-28.563,18.781-42.063
				c0.586-3.717-5.281-9.39-7.629-6.456c-7.832,9.899-17.047,25.297-20.77,37.022c-4.801,5.27-12.582,12.764-17.965,12.764
				c-11.543,0,20.934-57.992,22.891-61.857c2.15-4.051,0.195-8.102-5.676-9.942c-9.781,16.386-44.018,76.402-21.715,76.402
				c7.414,0,15.396-5.815,21.033-11.492c-0.953,6.277,0.682,10.513,6.549,10.513c9.195,0,16.043-9.391,28.76-25.042
				c-11.738,25.434-25.434,49.889-33.064,51.063c-7.238,0-3.717-12.129,4.305-14.868c5.479-1.761-0.588-7.827-5.674-5.674
				c-11.346,4.694-12.52,25.824,4.5,25.824c15.846,0,35.803-43.236,51.061-77.278C361.703,114.267,351.727,109.181,350.162,112.897z
				"/>
		</g>
		<g>
			<path fill="#1D1D1B" d="M167.684,206.641l3.586-4.23c8.131-10.293,12.568-37.013-6.529-28.316
				c-3.531,0.515-10.137,5.614-13.629,10.542c-0.738,0.798-1.693,2.287-2.119,2.978c-5.42,9.064-10.145,20.117-10.248,27.311
				c-0.299-0.936-0.225-5.923-0.527-6.393c0.148-3.013-0.225-5.806-0.492-8.828c0.018-1.273,0.15-3.13-0.041-4.409
				c0.041-2.668-0.121-5.688,0.027-8.819l0.305-6.605c0.025-1.74-0.168-2.673-1.295-3.622c-0.408-0.473-1.127-0.951-1.746-1.076
				c-2.699,0.297-4.873,0.141-7.057,0.565c-0.723-0.131-1.146,0.326-1.15,0.791l-1.328,19.702l-0.016,1.045
				c-0.119,1.158-0.148,3.014-0.27,4.404l-0.15,3.013c0.279,2.094-0.078,26.456-0.09,27.268l1.137,14.408
				c0.279,2.096,0.873,3.964,2.4,5.848c0.098,0.466,0.818,0.827,1.645,0.843c1.139,0.136,2.176,0.154,2.906-0.18
				c2.188-0.656,4.672-0.493,6.045-2.209c0.842-0.911,0.855-1.842,0.869-2.769c0.121-1.157,4.447,0.895,5.584,1.148l0.619,0.127
				c16.387,6.335,24.463-7.091,26.791-10.413c1.484-2.062,2.242-4.253,2.391-7.384c0.477-4.284-2.117-11.177-11.189-14.479
				c-0.822-0.479-2.891-0.633-4.135-0.655l2.213-2.629C164.092,211.098,166.092,209.046,167.684,206.641z M162.732,226.041
				c1.871,6.649,1.662,20.918-12.422,20.076l-6.924-1.402c-1.967-0.27-2.453-2.363-2.449-2.715
				c-0.154-3.598-0.004-6.729,0.15-10.208c0.014-0.811,0.338-1.735,0.557-2.659c0.313-0.108,10.43-4.217,11.998-5.347
				c1.154-0.791,2.619-1.692,4.18-2.015c0.725,0.015,1.449,0.028,2.063,0.62C161.422,223.466,162.137,224.289,162.732,226.041z
				 M156.547,209.799l-2.752,3.779c-1.264,1.252-2,2.05-3.162,3.422c-2.414,2.163-4.516,4.096-6.936,6.485
				c-0.414-0.008-0.627,0.337-1.15,0.793c-0.273-2.675,0.271-4.404,0.711-6.137c2.271-6.456,5.6-21.365,10.459-27.425
				c6.797-11.016,14.799-12.489,14.711-6.575c-0.533,7.998-2.674,12.715-7.553,20.168
				C159.607,206.024,158.021,208.084,156.547,209.799z"/>
			<path fill="#1D1D1B" d="M231.959,225.388c-0.34-4.723-0.475-9.337-0.609-14.057c-0.088-0.989-0.174-2.089-0.158-3.295
				c0.061-3.732,0.223-7.46,0.279-11.188c0.137-2.193,0.168-4.059,0.096-6.146c-0.162-2.963-0.223-5.708,0.031-8.669
				c0.018-1.205-0.063-2.634-0.041-3.951c0.113-0.766-0.078-1.647,0.139-2.411c0.225-0.984,0.242-2.083,0.361-3.064
				c-0.08-1.54-0.779-3.308-2.637-3.78l-5.924,0.995c-4.141-0.403-3.068,10.591-4.824,16.818c-0.354,2.846-1.738,5.126-2.191,7.752
				l-0.33,1.091c-6.172,17.014-2.928,8.401-10.551,25.277c-0.537,1.199-0.975,2.617-1.617,3.922
				c-0.953,1.302-1.803,2.714-2.756,4.014c-0.633,0.648-1.26,1.075-1.986,1.063c-0.313,0.104-0.621-0.01-0.826-0.233l-0.389-1.543
				c-0.295-1.104-0.486-2.203-0.68-3.196c-0.555-4.178-0.801-8.354-0.631-12.522c-0.082-1.537-0.162-2.963-0.037-4.389
				c0.379-4.384,0.756-8.658,1.238-12.927c0.035-2.305,0.762-11.249,0.697-13.775c0.035-2.195,0.17-4.386,0.41-6.469
				c-0.094-0.551-0.086-0.99,0.023-1.425c-0.074-1.977-1.195-3.203-2.525-4.215c-4.959-1.186-5.998-0.981-6.934-0.779
				c-0.832,0.095-1.563,0.412-2.393,0.506c-1.869,0.299-3.078,4.665-3.406,5.758c-0.982,3.165-3.125,36.56-3.143,37.766
				c0.088,0.989-0.035,2.086,0.057,3.073c0.092,0.66-0.021,1.317-0.033,2.084c-0.025,1.758,0.254,3.629,0.643,5.281
				c0.785,2.866,1.682,5.296,3.094,7.627c0.912,1.551,2.027,3.106,3.459,4.229c2.143,2.231,4.996,5.356,8.523,5.086
				c1.25-0.195,2.701-0.279,3.949-0.588c0.836-0.313,1.568-0.74,2.191-0.95c1.986-0.951,5.582-5.499,6.215-6.146
				c0.318-0.542,0.633-0.867,0.951-1.301c1.064-1.847,2.336-3.689,3.203-5.98c0.111-0.545,0.43-0.979,0.746-1.522
				c0.861-1.852,1.717-3.591,2.471-5.444c0.531-0.869,0.65-1.744,1.18-2.503c0.648-1.743,1.191-3.272,1.734-4.908
				c0.221-0.875,0.543-1.638,1.389-2.609c0.199,0.551,0.191,0.991,0.188,1.319c-0.035,2.305-0.07,4.5-0.002,6.804
				c-0.018,1.097-0.141,2.302-0.16,3.511c-0.16,3.619,0.432,29.444,0.59,32.739c-0.008,0.437,0.74,5.719,3.535,5.877
				c0.416,0.007,0.932,0.126,1.449,0.245c1.139,0.02,2.486,0.044,3.629-0.049c1.449,0.026,2.084-0.73,2.311-2.153
				c0.219-0.654,0.23-1.313,0.24-2.08c0.049-3.072-0.092-17.913-0.146-20.988C231.879,230.546,232.127,227.915,231.959,225.388z"/>
			<path fill="#1D1D1B" d="M289.379,174.361c-0.301-0.58-0.916-0.934-1.43-1.403c-0.305-0.351-0.715-0.703-1.236-0.484
				c-1.764,0.081-3.318,0.056-5.188,0.251c-4.361,0.61-8.834,1.564-13.307,2.633c-1.768,0.312-3.742,0.618-5.711,0.813
				c-6.035,1.499-20.48,3.88-24.234,5.42c-0.314,0.224-0.834,0.444-0.742,1.137l1.119,1.401c0.41,0.353,0.926,0.36,1.445,0.485
				c0.514,0.124,1.137,0.135,1.654,0.145c0.52,0.01,0.727,0.014,1.246-0.093c0.934-0.097,2.074-0.191,3.008-0.175
				c0.521-0.105,0.936,0.018,1.451,0.028c-0.01,0.688,0.193,0.923,0.186,1.497c-0.338,1.948-0.473,3.901-0.709,5.852
				c-0.123,1.262-0.451,2.403-0.572,3.667c-0.24,2.18-0.377,4.247-0.406,6.431c-0.475,4.015-0.639,8.035-0.799,11.941
				c-0.365,3.443-0.52,7.003-0.773,10.218c-0.029,1.952-0.164,3.905-0.193,5.857l-0.936,14.127
				c-0.215,0.456-0.221,1.028-0.018,1.265c0.193,0.922,0.488,1.961,0.793,2.428c0.201,0.463,0.615,0.585,0.82,0.704
				c0.617,0.241,1.133,0.48,1.65,0.49c2.471,1.08,4.945,2.043,7.311,3.238c1.547,0.601,2.998,0.627,4.561,0.199
				c1.248-0.438,1.881-1.233,2.211-2.375c0.33-1.258,0.555-2.635,0.365-3.789c-0.184-1.498-0.164-2.876,0.064-4.252
				c0.01-0.689,0.021-1.493-0.176-2.188c-0.063-2.646-0.012-13.105,0.02-15.29c0.152-3.215-0.111-6.44,0.25-9.652
				c0.105-0.342,0.012-0.805,0.016-1.148c0.006-0.46-0.088-1.151-0.078-1.842c0.141-2.295,0.275-4.594,0.518-6.888
				c0.164-4.021,0.846-8.033,1.318-11.934c0.594-5.16,1.137-6.761,1.264-8.368c0.352-2.638,0.77-2.859,3.059-3.511
				c1.559-0.313,3.225-0.743,4.885-0.945c3.535-0.622,6.76-1.37,10.188-1.881c1.666-0.43,3.326-0.629,4.883-0.714
				c0.725,0.013,1.246-0.094,1.871-0.313C289.969,176.558,290.09,175.296,289.379,174.361z"/>
		</g>
		<g>
			<path fill="#1D1D1B" d="M116.641,254.347c-4.303,0-8.02,3.913-7.627,9.978c-5.479,6.065-11.152,11.934-15.457,16.238
				c-17.803,6.65-22.889,35.997-0.586,35.997c27.975,0,32.865-36.78,26.02-53.018C118.795,262.954,122.902,254.347,116.641,254.347z
				 M91.209,312.646c-11.348,0-3.717-29.933,10.564-29.541c3.326,0,3.326-3.913-0.195-3.913c-0.979,0-1.76,0.196-2.543,0.196
				c2.934-2.935,6.064-6.262,9.781-9.782C111.75,289.952,102.361,312.646,91.209,312.646z"/>
			<path fill="#1D1D1B" d="M344.014,260.803c-6.262,13.89-27.193,46.953-35.803,46.953c-7.041,0,15.064-28.563,18.783-42.063
				c0.586-3.717-5.283-9.391-7.631-6.456c-7.68,9.707-16.686,24.696-20.541,36.331c-4.779,5.411-12.727,13.339-18.191,13.339
				c-11.545,0,20.934-59.446,22.889-63.408c2.152-4.153,0.195-8.305-5.674-10.191c-5.908,10.144-20.729,36.597-26.635,55.962
				c-7.424,10.8-21.465,20.654-34.398,15.899c-5.283-1.762-5.088-5.087-0.588-13.108c0.979,0.979,3.131,1.174,3.717,1.174
				c16.824,0,25.824-18.78,25.824-24.845c0-3.131-5.674-13.892-11.15-11.935c-6.502,2.223-26.617,21.805-28.424,38.589
				c-5.287,6.202-14.926,16.42-21.742,16.42c-7.043,0,12.717-29.426,18.977-38.919c0-6.646-14.869-10.442-17.803-12.72
				c5.674-9.684,7.238-17.086-4.109-17.086c-11.543,0-13.693,19.744-3.129,22.971c-4.051,7.258-9.354,15.238-15.195,23.174
				c-3.779,4.894-12.602,16.872-20.711,16.872c-7.043,0,15.064-28.563,18.781-42.063c0.586-3.717-5.281-9.391-7.631-6.456
				c-3.912,5.282-7.043,9.391-9.781,14.086c-9,13.304-23.672,34.433-29.736,34.433c-7.043,0,15.063-28.563,18.781-42.063
				c0.586-3.717-5.281-9.391-7.631-6.456c-14.086,17.803-32.67,53.409-15.65,53.409c6.848,0,16.434-9.977,24.846-20.934
				c-4.5,11.543-5.283,20.934,3.521,20.934c7.986,0,16.646-7.172,22.307-13.603c0.125,0.039,16.143-20.892,21.229-29.624
				c2.74,1.518,5.674,2.656,9,3.606c-7.631,12.72-28.367,45.184-10.564,45.184c8.457,0,19.627-9.489,26.229-16.841
				c0.092,0.905,0.23,1.799,0.459,2.67c6.27,21.536,31.936,7.16,42.635-4.948c-1.527,8.637-0.045,14.534,6.859,14.534
				c7.436,0,15.455-5.994,21.094-11.828c-1.061,6.459,0.518,10.85,6.488,10.85c9.195,0,16.043-9.391,28.758-25.042
				c-11.738,25.434-25.434,49.889-33.063,51.063c-7.238,0-3.717-12.13,4.305-14.869c5.479-1.76-0.588-7.826-5.674-5.673
				c-11.348,4.694-12.521,25.824,4.5,25.824c15.846,0,35.801-43.236,51.061-77.278C355.557,262.172,345.58,257.086,344.014,260.803z
				 M255.006,272.541c5.674,0-0.195,18.389-17.412,19.172C243.66,282.128,252.463,272.541,255.006,272.541z M202.689,249.105
				c5.867,0,2.348,7.213,0.193,10.44C198.385,255.37,200.537,249.105,202.689,249.105z"/>
		</g>
	</g>
	<g>
		<g>
			<path fill="#CB7B26" d="M101.039,231.023c-6.189,6.704-9.146,13.761-7.219,15.259c1.951,1.522,7.869-2.837,13.768-9.219
				c5.877-6.406,9.764-12.598,8.107-14.438C114.066,220.804,107.217,224.3,101.039,231.023z"/>
			<path fill="#CB7B26" d="M100.078,216.715c8.109-0.134,14.65-2.237,14.611-4.693c-0.043-2.458-6.646-4.348-14.756-4.213
				c-8.111,0.135-14.65,2.236-14.609,4.694C85.363,214.962,91.969,216.847,100.078,216.715z"/>
			<path fill="#CB7B26" d="M99.086,195.183c7.902,5.622,15.434,8.532,16.82,6.502c1.387-2.031-3.832-8.189-11.656-13.757
				c-7.826-5.567-15.357-8.48-16.818-6.503C85.969,183.401,91.188,189.563,99.086,195.183z"/>
		</g>
		<g>

				<ellipse transform="matrix(0.2703 -0.9628 0.9628 0.2703 -16.7353 435.6195)" fill="#CB7B26" cx="279" cy="228.85" rx="4.452" ry="8.229"/>
			<path fill="#CB7B26" d="M274.102,214.538c0.154,2.441,7.744,3.943,16.881,2.693c9.135-1.231,16.053-4.699,15.553-7.093
				c-0.502-2.422-7.957-2.915-16.75-1.729C280.994,209.609,273.938,212.072,274.102,214.538z"/>
			<path fill="#CB7B26" d="M282.254,200.395c3.445-2.839,4.969-6.685,3.406-8.577c-1.564-1.898-5.627-1.133-9.072,1.708
				c-3.445,2.845-4.971,6.687-3.404,8.585C274.748,204.005,278.811,203.239,282.254,200.395z"/>
		</g>
	</g>
</svg>
